<svg width="24" height="30" viewBox="0 0 24 30" fill="none" xmlns="http://www.w3.org/2000/svg">
<path fill-rule="evenodd" clip-rule="evenodd" d="M23.2302 22.065L23.5902 23.775C23.9314 25.2534 23.5945 26.8069 22.6717 28.0112C21.7489 29.2155 20.3365 29.9449 18.8202 30H4.90024C3.38401 29.9449 1.9716 29.2155 1.04877 28.0112C0.125937 26.8069 -0.210901 25.2534 0.130249 23.775L0.490248 22.065C0.9043 19.7502 2.89418 18.0491 5.24524 18H18.4752C20.8263 18.0491 22.8162 19.7502 23.2302 22.065ZM18.8202 27.735C19.5819 27.7262 20.2987 27.3733 20.7702 26.775V26.79C21.3488 26.0643 21.5742 25.1187 21.3852 24.21L21.0252 22.5C20.8255 21.2328 19.7572 20.2839 18.4752 20.235H5.24525C3.96329 20.2839 2.89499 21.2328 2.69525 22.5L2.33525 24.21C2.15098 25.1139 2.37614 26.053 2.95025 26.775C3.42175 27.3733 4.13856 27.7262 4.90025 27.735H18.8202Z" fill="white"/>
<path fill-rule="evenodd" clip-rule="evenodd" d="M12.6102 15H11.1102C7.79651 15 5.11022 12.3137 5.11022 9.00001V5.04002C5.10622 3.7021 5.63593 2.41784 6.58198 1.47179C7.52803 0.525736 8.8123 -0.00397727 10.1502 2.24875e-05H13.5702C14.9081 -0.00397727 16.1924 0.525736 17.1384 1.47179C18.0845 2.41784 18.6142 3.7021 18.6102 5.04002V9.00001C18.6102 12.3137 15.9239 15 12.6102 15ZM10.1502 2.25002C8.60934 2.25002 7.36022 3.49914 7.36022 5.04002V9.00001C7.36022 11.0711 9.03915 12.75 11.1102 12.75H12.6102C14.6813 12.75 16.3602 11.0711 16.3602 9.00001V5.04002C16.3602 4.30006 16.0663 3.59042 15.543 3.06719C15.0198 2.54396 14.3102 2.25002 13.5702 2.25002H10.1502Z" fill="white"/>
</svg>
