<svg width="30" height="32" viewBox="0 0 30 32" fill="none" xmlns="http://www.w3.org/2000/svg">
<path fill-rule="evenodd" clip-rule="evenodd" d="M1.69443 9.04754C3.97048 3.58225 9.30333 0.0160185 15.2236 0.000205631C21.6042 -0.0333945 27.2777 4.05361 29.2667 10.1164C31.2556 16.1792 29.1057 22.8328 23.9452 26.5854C18.7846 30.338 11.7923 30.3324 6.63778 26.5715L2.04167 31.1676C1.57437 31.6344 0.817339 31.6344 0.350039 31.1676C-0.11668 30.7003 -0.11668 29.9433 0.350039 29.476L4.80253 25.0235C0.643525 20.8102 -0.581607 14.5128 1.69443 9.04754ZM3.82836 19.4203C5.73938 24.0255 10.2377 27.0248 15.2236 27.0184V26.9545C21.9906 26.9459 27.484 21.481 27.5278 14.7142C27.5342 9.72824 24.5349 5.22996 19.9297 3.31894C15.3246 1.40792 10.0216 2.46097 6.49598 5.98656C2.97039 9.51215 1.91734 14.8151 3.82836 19.4203Z" fill="white"/>
</svg>
