<svg width="40" height="40" viewBox="0 0 40 40" fill="none" xmlns="http://www.w3.org/2000/svg">
<path d="M27.95 34.6405L20.8 29.1572C20.1204 28.6405 19.1796 28.6405 18.5 29.1572L11.2834 34.6405C10.7571 35.0636 10.0397 35.1598 9.4205 34.8905C8.80134 34.6211 8.38265 34.0306 8.33337 33.3572V9.92386C8.39801 8.54996 9.00779 7.25855 10.0276 6.33568C11.0475 5.41282 12.3932 4.93468 13.7667 5.00719H25.4334C26.8152 4.94405 28.1645 5.4376 29.1795 6.37738C30.1945 7.31715 30.7902 8.62465 30.8334 10.0072V33.3572C30.7685 34.0064 30.3605 34.5709 29.7644 34.8362C29.1684 35.1015 28.4758 35.0268 27.95 34.6405Z" fill="#205F35"/>
</svg>
