<svg width="99" height="103" viewBox="0 0 99 103" fill="none" xmlns="http://www.w3.org/2000/svg">
<path d="M31.3011 10.4331C32.2936 10.0107 33.271 9.54755 34.2816 9.17188C38.531 7.59507 42.9395 6.74815 47.4537 6.50451C52.6206 6.22572 57.6956 6.84828 62.6528 8.3507C68.12 10.0078 73.0993 12.6124 77.5871 16.1536C81.4763 19.2226 84.7657 22.8453 87.4728 26.9972C87.6555 27.2774 87.9429 27.5294 87.7008 27.9573C87.6021 28.1325 87.6989 28.4196 87.7075 28.7044C87.9646 28.6515 88.1771 28.608 88.4636 28.5489C89.0937 29.7291 89.7304 30.9189 90.4004 32.1742C89.7739 32.2622 89.2475 32.3634 88.7182 32.3917C88.5813 32.3994 88.3812 32.2107 88.2966 32.0623C87.4538 30.5819 86.6985 29.0463 85.7783 27.6177C84.9892 26.3928 84.048 25.2605 83.1217 24.1303C78.7472 18.7911 73.3939 14.7303 67.0913 11.9355C62.1415 9.74162 56.9569 8.54041 51.5464 8.30654C48.5766 8.17807 45.6372 8.41516 42.6971 8.82522C40.7425 9.09783 38.8505 9.60785 36.9875 10.1976C35.1216 10.7888 33.2743 11.4832 31.5012 12.3108C29.7144 13.1454 27.9944 14.1426 26.3069 15.1697C24.0368 16.5532 21.9954 18.2471 20.048 20.0589C18.7543 21.2622 17.5685 22.5635 16.4612 23.9323C16.0889 24.3933 15.7538 24.6279 15.1851 24.3757C15.0958 24.3359 14.9866 24.3397 14.8604 24.3197C14.5813 24.7665 14.8572 25.1897 14.8811 25.6128C14.8876 25.7334 14.9036 25.8841 14.8428 25.9723C14.293 26.7851 13.727 27.5865 13.1346 28.4377C12.752 28.1258 12.4139 28.3389 12.2483 28.6639C12.1696 28.8174 12.4063 29.133 12.5357 29.4658C11.0922 31.9244 9.77093 34.5984 8.86816 37.4524C8.29269 39.2725 7.84659 41.1351 7.35527 42.981C7.2753 43.2825 7.08393 43.4162 6.87455 43.6227C6.40913 44.0831 5.85378 43.8888 5.276 44.1523C5.44894 43.2699 5.58688 42.4658 5.76682 41.6704C7.12985 35.6558 9.60818 30.1444 13.2099 25.1415C15.8062 21.534 18.8729 18.3863 22.3929 15.681C22.5806 15.5362 22.7876 15.395 23.0091 15.3189C23.444 15.1697 23.9452 15.1349 24.0057 14.5166C24.0111 14.4583 24.1316 14.4078 24.2021 14.3591C26.3644 12.8787 28.6367 11.5923 31.0186 10.499C31.111 10.4567 31.2163 10.4398 31.3147 10.4113C31.2959 10.4558 31.2717 10.4991 31.2594 10.5458C31.2159 10.7049 31.1766 10.8644 31.1353 11.0243C31.2937 11.0429 31.4851 11.1249 31.6032 11.0654C31.774 10.9785 31.8914 10.787 32.0318 10.6405C31.9213 10.5461 31.8227 10.4101 31.6959 10.3703C31.5801 10.3352 31.4323 10.4073 31.2986 10.4303L31.3011 10.4331ZM26.2685 14.7036C26.6196 14.3148 26.9765 13.9304 27.3052 13.5238C27.3249 13.5001 27.1333 13.2085 27.0118 13.1848C26.6699 13.1176 25.8337 13.7149 25.7195 14.0558C25.5871 14.4526 25.757 14.6644 26.2685 14.7036ZM34.5758 9.97812C35.164 10.2873 35.7137 10.2478 36.0351 9.81913C36.1522 9.66332 36.196 9.35752 36.1235 9.18333C36.0736 9.06671 35.7517 8.99355 35.567 9.01846C35.0407 9.09034 34.7509 9.46109 34.5758 9.97812ZM6.48679 41.191C7.04489 41.3305 7.42757 41.1667 7.43984 40.7407C7.4453 40.5713 7.24918 40.2992 7.08528 40.2415C6.8169 40.1472 6.51248 40.6447 6.48679 41.191ZM45.2053 8.02745C45.3426 7.80699 45.4691 7.67291 45.4998 7.51879C45.5107 7.46277 45.2591 7.27183 45.1834 7.29922C45.0341 7.35269 44.9243 7.51586 44.7985 7.63306C44.9087 7.74015 45.0189 7.84724 45.2053 8.02745Z" fill="#F04F4F"/>
<path d="M41.8186 95.9379C42.0412 95.7139 42.2167 95.5708 42.3485 95.3931C42.4417 95.2679 42.4733 95.0979 42.5327 94.9481C42.3494 94.8785 42.1393 94.7153 41.9885 94.7585C41.7032 94.8415 41.4086 94.9992 41.1949 95.2053C40.7557 95.6284 40.3153 95.6872 39.7186 95.5479C33.963 94.2048 28.6652 91.8409 23.8314 88.4415C21.0003 86.4507 18.4258 84.165 16.1288 81.5699C16.0841 81.5196 16.0467 81.462 16.0287 81.4384C16.4947 81.0711 16.9514 80.7126 17.3787 80.3749C18.6383 81.585 19.9177 82.9139 21.3006 84.1234C27.5115 89.5545 34.6993 92.9342 42.8322 94.2889C43.3579 94.3764 43.8914 94.4229 44.4158 94.5158C44.7299 94.5712 45.1027 94.4559 45.2349 94.9874C45.3027 95.2618 45.6836 95.1444 45.9333 94.95C46.0822 94.8338 46.2974 94.7207 46.4747 94.7325C49.8405 94.9625 53.187 94.8253 56.5214 94.3116C56.722 94.2803 56.9569 94.3824 57.1587 94.4641C57.5012 94.6024 57.7786 94.6263 57.9526 94.2205C57.9897 94.1346 58.0984 94.045 58.1902 94.0216C59.1587 93.7776 60.1309 93.5456 61.1024 93.3158C61.1985 93.2929 61.3252 93.2719 61.4013 93.3147C61.7115 93.4911 61.8612 93.3433 62.0931 93.1263C62.3141 92.9203 62.6721 92.849 62.9793 92.7503C67.9189 91.1739 72.4164 88.766 76.4786 85.5444C82.1363 81.0572 86.3984 75.4858 89.3191 68.8813C89.6602 68.1094 89.9602 67.3203 90.2954 66.4989C90.6949 66.6555 91.0217 66.511 91.0854 66.0935C91.113 65.9104 90.8788 65.6877 90.7509 65.4616C91.2176 63.5374 91.7037 61.513 92.2094 59.4943C92.2404 59.3726 92.4167 59.2284 92.5468 59.2017C93.0349 59.1038 93.5316 59.0518 94.1397 58.9663C93.9518 59.9283 93.7766 60.8246 93.5948 61.7554C93.3049 61.7091 93.059 61.6704 92.7647 61.6227C92.6604 62.1675 92.6826 62.6379 93.021 63.0817C93.1108 63.2001 93.1492 63.421 93.1092 63.568C91.972 67.7374 90.2548 71.6561 87.9798 75.3254C84.9759 80.1699 81.1938 84.3055 76.6327 87.7198C72.8682 90.537 68.7828 92.7676 64.3027 94.1987C62.0601 94.9151 59.7462 95.4059 57.4636 95.9938C57.2819 96.0403 57.0908 96.0494 56.9093 96.0749C56.5801 95.3616 56.4717 95.3642 55.8675 95.886C55.613 96.1062 55.2687 96.3128 54.9455 96.3488C50.6445 96.837 46.3535 96.7569 42.0834 96.0066C42.0212 95.9954 41.9608 95.9746 41.8163 95.9362L41.8186 95.9379ZM84.4507 78.5087C85.0519 78.6348 85.3964 78.4826 85.4039 78.0374C85.4069 77.8651 85.2059 77.5958 85.0385 77.5355C84.7832 77.4446 84.463 77.9863 84.4507 78.5087ZM87.6623 72.8733C87.4796 73.2542 87.341 73.4738 87.2796 73.7139C87.263 73.7812 87.5574 74.0018 87.5687 73.9928C87.7853 73.8 87.9911 73.5909 88.1647 73.3601C88.1779 73.3425 87.9284 73.1293 87.6625 72.8743L87.6623 72.8733ZM39.1073 94.0109C38.7061 94.0652 38.3601 94.1547 38.3185 94.6027C38.3146 94.642 38.6548 94.7859 38.8082 94.7539C39.1797 94.6744 39.3884 94.4555 39.1073 94.0109V94.0109ZM68.2039 91.3046L68.2823 91.5576C68.5269 91.5494 68.7725 91.5411 69.017 91.5329L68.9803 90.7733C68.924 90.7519 68.8668 90.7316 68.8104 90.7102C68.6082 90.9083 68.4059 91.1055 68.2037 91.3036L68.2039 91.3046Z" fill="#F04F4F"/>
<path d="M24.2337 70.6359L23.9835 68.8554C24.178 68.8187 24.356 68.7758 24.5365 68.7505C42.5734 66.2145 60.6118 63.6815 78.6471 61.1332C79.1628 61.0607 79.2926 61.2101 79.3451 61.6878C79.4741 62.8661 79.4965 62.8693 78.3224 63.0343C63.2927 65.1465 48.2637 67.2566 33.2339 69.3679C30.4531 69.7587 27.6726 70.1516 24.892 70.5434C24.691 70.5717 24.49 70.5999 24.2337 70.6359V70.6359ZM43.203 67.904C43.8321 67.2467 43.858 66.9999 43.3808 66.4311C42.6892 66.8373 42.6134 67.3844 43.203 67.904ZM33.1272 68.9732C33.4463 68.744 33.9035 68.6567 33.7517 68.1573C33.7244 68.0669 33.294 67.9807 33.1618 68.0663C32.8349 68.2778 32.7993 68.6044 33.1272 68.9732ZM37.9311 67.7931C37.9889 67.8028 38.0466 67.8115 38.1044 67.8211C38.1509 67.6679 38.2812 67.4568 38.2236 67.3748C38.1372 67.2508 37.9221 67.216 37.7615 67.1443C37.7308 67.1864 37.7001 67.2284 37.6706 67.2713C37.7578 67.4455 37.8439 67.6189 37.9311 67.7931Z" fill="#F04F4F"/>
<path d="M75.4785 34.2503L20.2393 42.0137L19.9961 40.2835C20.1754 40.25 20.3688 40.205 20.5647 40.1775C33.6875 38.3353 46.8117 36.495 59.9344 34.6517C64.8315 33.9635 69.7299 33.2772 74.624 32.5673C75.1261 32.4947 75.3086 32.6251 75.3266 33.1171C75.3392 33.4747 75.4194 33.8301 75.4785 34.2503ZM59.9173 35.5719C60.1174 35.3217 60.2479 35.1567 60.3796 34.9925C60.2489 34.9103 60.0795 34.7319 59.9933 34.766C59.7981 34.8427 59.6427 35.0238 59.4718 35.162C59.5908 35.2721 59.7097 35.3821 59.9164 35.5731L59.9173 35.5719Z" fill="#F04F4F"/>
<path d="M83.5956 70.3709L83.7015 71.125C83.8326 71.1349 83.9626 71.1449 84.1181 71.1576C84.0991 71.2232 84.0921 71.2923 84.0609 71.3459C82.7057 73.7187 81.1144 75.9214 79.3003 77.9606C77.46 80.0286 75.4361 81.8993 73.2017 83.5365C72.8405 83.801 72.478 84.0636 72.1035 84.308C71.795 84.5085 71.5449 84.8192 71.0601 84.6139C70.8889 84.5415 70.4742 84.7748 70.3169 84.9802C69.0685 86.6246 67.1463 87.1577 65.4146 87.9972C64.931 88.2318 64.377 88.3148 63.8697 88.5066C63.139 88.7832 62.437 89.1449 61.6948 89.3843C58.8812 90.2931 55.9985 90.8816 53.0475 91.0952C51.8395 91.1822 50.6264 91.2479 49.4153 91.2379C48.16 91.2268 46.901 91.1596 45.6532 91.0301C44.4225 90.9035 43.194 90.7105 41.9805 90.4682C40.7671 90.227 39.5569 89.9413 38.3721 89.583C33.4702 88.1021 29.0089 85.7683 25.0052 82.5614C22.5862 80.6236 20.4086 78.4466 18.5167 75.9885C18.3414 75.7607 18.2252 75.447 18.1924 75.1614C18.1551 74.8366 18.0217 74.6835 17.7396 74.5513C17.4934 74.4361 17.2241 74.2686 17.0814 74.0487C16.2685 72.7957 15.4901 71.5201 14.6922 70.2398C15.5233 69.8894 15.6082 69.9204 15.9806 70.569C20.6284 78.664 27.2878 84.4292 35.9811 87.7922C42.5425 90.3306 49.3251 90.9688 56.2444 89.7742C64.2448 88.3932 71.1531 84.8219 76.9534 79.1171C77.2656 78.8092 77.6598 78.5788 77.944 78.2497C78.602 77.4857 79.2556 76.7128 79.8365 75.8905C81.0298 74.2036 82.1744 72.4827 83.3376 70.7749C83.4034 70.6777 83.4633 70.576 83.5932 70.3692L83.5956 70.3709Z" fill="#F04F4F"/>
<path d="M57.5214 82.1655C56.4605 81.774 55.5171 81.4519 54.5972 81.0741C54.1222 80.8789 53.7545 80.8813 53.3327 81.2204C52.5434 81.8541 51.706 82.4275 50.7826 83.1042C50.7906 82.6547 50.7892 82.3102 50.8057 81.9663C50.8429 81.1743 50.9064 80.3837 50.9195 79.5919C50.9226 79.4281 50.7901 79.2068 50.6524 79.1046C49.8057 78.4818 48.94 77.8868 48.081 77.2805C48.0159 77.2341 47.9587 77.1761 47.8253 77.0608C48.9107 76.7636 49.9105 76.4597 50.9262 76.2247C51.3911 76.1175 51.6116 75.8937 51.7427 75.4426C52.0291 74.4521 52.3743 73.4785 52.7285 72.3978C53.2258 73.1314 53.6811 73.7893 54.1218 74.4555C54.8812 75.6029 54.8775 75.5992 56.2402 75.5638C57.0414 75.5434 57.8439 75.5469 58.7669 75.5377C58.0401 76.4298 57.4018 77.2372 56.7351 78.0213C56.4462 78.3615 56.3177 78.652 56.514 79.1189C56.8396 79.8956 57.0674 80.7133 57.3328 81.5152C57.391 81.6914 57.4372 81.8714 57.5223 82.1643L57.5214 82.1655ZM55.8909 78.0331C56.0927 77.7879 56.2301 77.6198 56.3685 77.4515C56.2167 77.3681 56.0366 77.1881 55.9215 77.2242C55.7409 77.2789 55.6049 77.4792 55.4499 77.6184C55.5715 77.7322 55.6921 77.8463 55.892 78.034L55.8909 78.0331Z" fill="#F04F4F"/>
<path d="M45.3095 19.7502C45.9663 20.7035 46.584 21.5795 47.1788 22.4713C47.3667 22.7518 47.5508 22.8936 47.9231 22.879C49.0172 22.8373 50.1137 22.8572 51.3426 22.8521C50.6817 23.6773 50.1401 24.4512 49.4957 25.1264C49.009 25.6358 48.939 26.0826 49.2044 26.721C49.5597 27.5753 49.8074 28.475 50.1414 29.4747C49.3471 29.1872 48.6211 29.0137 47.9855 28.6724C46.9441 28.1147 46.0919 28.1967 45.2332 29.0351C44.722 29.5344 44.074 29.8937 43.4859 30.3147C43.4745 30.3226 43.4528 30.3173 43.3638 30.3235C43.4009 29.4341 43.365 28.5391 43.4937 27.6693C43.6136 26.8561 43.3652 26.3683 42.6641 25.9702C41.9778 25.5805 41.356 25.077 40.7084 24.6201C40.6317 24.5659 40.5699 24.4908 40.4384 24.3657C41.3664 24.1096 42.2111 23.818 43.0807 23.6518C43.8556 23.5041 44.2962 23.1719 44.4702 22.3564C44.6564 21.4868 45.0087 20.6526 45.3073 19.7494L45.3095 19.7502ZM47.1671 25.2378C47.4749 25.0919 47.774 24.9503 47.9699 24.8568C48.1379 25.0553 48.2663 25.3138 48.3674 25.3038C48.5664 25.2842 48.7947 25.1526 48.9297 24.9974C49.0395 24.8709 49.0616 24.6415 49.062 24.4581C49.0626 24.3135 48.997 24.0702 48.9121 24.0465C48.7827 24.0112 48.5275 24.0848 48.475 24.1875C48.3121 24.509 48.0846 24.475 47.7952 24.4539C47.2678 24.4138 47.0869 24.6519 47.1661 25.2379L47.1671 25.2378Z" fill="#F04F4F"/>
<path d="M84.6624 32.9429C83.7909 33.1554 83.7958 33.1527 83.3948 32.4494C83.1477 32.0158 82.8936 31.5843 82.6263 31.163C82.3763 30.7675 82.0481 30.3966 82.5769 29.7848C81.6448 29.9819 81.4656 29.3396 81.1235 28.8995C80.3411 27.8926 79.5539 26.8895 78.8272 25.9597C78.8591 25.6734 78.8855 25.4371 78.9118 25.1998C78.6763 25.1836 78.441 25.1685 78.1158 25.1461C77.1604 24.2473 76.1344 23.2265 75.05 22.2736C71.6368 19.2728 67.8028 16.9462 63.5487 15.3649C61.7152 14.6838 59.8021 14.2182 57.921 13.6675C57.5983 13.5735 57.2632 13.5473 57.3646 13.0636C57.3797 12.9924 57.2471 12.8895 57.1824 12.8011C57.1005 12.8734 56.9926 12.9315 56.9447 13.0221C56.8899 13.123 56.8893 13.253 56.8501 13.4429C56.257 13.2329 55.5522 13.4629 55.1703 12.9551C54.7782 12.985 54.4627 13.0461 54.1525 13.0268C52.579 12.9305 51.0067 12.8142 49.4406 12.7042C49.495 12.4588 49.5568 12.184 49.6196 11.9017C63.839 11.5974 78.0587 20.0675 84.6624 32.9429V32.9429Z" fill="#F04F4F"/>
<path d="M58.7461 19.2028C59.3468 20.0917 59.8777 20.849 60.3751 21.6277C60.5546 21.9084 60.7531 22.0188 61.0834 22.0101C62.0376 21.9849 62.9931 21.991 64.0525 21.9846C63.5403 22.6255 63.1133 23.2481 62.5953 23.7809C62.0565 24.3365 61.8809 24.8504 62.2408 25.5961C62.5592 26.2543 62.7179 26.9895 62.9866 27.8077C62.1597 27.5111 61.402 27.2981 60.6982 26.9695C60.0436 26.6645 59.5434 26.7138 58.9934 27.1976C58.4166 27.7061 57.7541 28.1177 57.0302 28.6438C57.048 28.064 56.9872 27.5644 57.0917 27.1024C57.3953 25.7585 56.9835 24.8294 55.7081 24.2512C55.2658 24.0503 54.8968 23.6863 54.3954 23.3251C55.3672 23.0607 56.2323 22.8102 57.1056 22.5964C57.5241 22.4935 57.7811 22.3212 57.9007 21.8623C58.1213 21.0141 58.4278 20.1894 58.7471 19.2027L58.7461 19.2028ZM59.6035 25.512C59.1449 25.7305 58.8734 26.1647 59.0758 26.3845C59.1659 26.4829 59.4676 26.5317 59.5578 26.4593C59.9018 26.1836 59.8121 25.8431 59.6035 25.512V25.512Z" fill="#F04F4F"/>
<path d="M44.8717 78.424C44.2127 79.2479 43.6542 79.9907 43.0431 80.6863C42.7806 80.9841 42.7828 81.2373 42.9006 81.5697C43.2021 82.4283 43.4848 83.2938 43.8101 84.2622C43.0368 83.9822 42.3218 83.7977 41.6788 83.4711C40.9019 83.0764 40.3028 83.1585 39.6623 83.7493C39.1263 84.2437 38.482 84.6213 37.8231 85.0963C37.8711 84.1288 37.9037 83.2369 37.969 82.3476C37.98 82.2025 38.1735 82.0769 38.2087 81.9252C38.2625 81.6903 38.2524 81.4403 38.2694 81.1969C38.0776 81.2082 37.8856 81.2257 37.6936 81.2286C37.5444 81.2307 37.3592 81.2672 37.251 81.1965C36.592 80.7632 35.951 80.3022 35.2023 79.7809C35.9648 79.5669 36.6199 79.3103 37.2991 79.2107C38.2305 79.0745 38.7375 78.6272 38.914 77.6888C39.0338 77.0527 39.3071 76.4454 39.5117 75.8258C39.516 75.8115 39.5344 75.8016 39.6168 75.7178C40.0132 76.5075 40.7531 77.0405 40.8962 77.9916C40.9253 78.1835 41.4694 78.4098 41.7864 78.426C42.7793 78.475 43.7771 78.4322 44.8728 78.4239L44.8717 78.424Z" fill="#F04F4F"/>
<path d="M61.7944 76.0237C62.8563 75.7309 63.7871 75.4943 64.7025 75.2075C64.9059 75.1443 65.1235 74.9367 65.2129 74.7397C65.3975 74.3345 65.4625 73.8748 65.6461 73.4698C65.8289 73.0669 66.0978 72.7033 66.3788 72.2405C66.9057 73.013 67.35 73.7049 67.8427 74.3607C67.9689 74.5294 68.2423 74.6743 68.4522 74.6805C69.4127 74.7068 70.3751 74.6805 71.4676 74.6716C70.7635 75.5469 70.1365 76.3307 69.499 77.1065C69.4544 77.161 69.3266 77.1747 69.2435 77.1634C68.6159 77.0797 68.4011 77.3519 68.6239 77.9922C68.8855 77.8748 69.1449 77.7566 69.4389 77.6241C69.7573 78.5799 70.0621 79.4915 70.4003 80.5064C69.6414 80.2327 68.9258 80.0514 68.2849 79.7245C67.5066 79.3279 66.9001 79.4163 66.258 79.9958C65.7263 80.476 65.1017 80.8529 64.5192 81.2763C64.4665 81.2586 64.4128 81.241 64.3601 81.2232C64.4644 80.6187 64.5731 80.0157 64.6688 79.4093C64.6869 79.2925 64.665 79.1667 64.6432 79.0483C64.62 78.9206 64.5248 78.7862 64.5487 78.6739C64.6652 78.1337 64.4327 77.8258 63.9815 77.5467C63.267 77.1054 62.5994 76.5884 61.7952 76.0225L61.7944 76.0237Z" fill="#F04F4F"/>
<path d="M15.6415 33.0399C15.5593 32.7896 15.4876 32.5692 15.4146 32.3479C15.2977 32.5424 15.1958 32.7474 15.0589 32.9269C14.9494 33.0701 14.7976 33.1805 14.5625 33.2335C14.7997 32.7936 15.0291 32.3497 15.2755 31.9159C17.2157 28.5053 19.6083 25.4492 22.4439 22.7405C22.667 22.5269 22.8632 22.3977 23.2 22.473C23.5972 22.5617 23.9985 22.5304 24.2491 22.029C24.086 21.9178 23.9126 21.7997 23.6616 21.6286C30.9171 15.3861 39.3161 12.192 48.8623 11.9149C48.477 12.3577 48.1853 12.8335 47.4483 12.8721C41.3918 13.1827 35.7356 14.8902 30.4738 17.8938C26.6406 20.0815 23.2919 22.8665 20.402 26.2083C20.2392 26.3967 19.9807 26.5064 19.7562 26.6354C19.4659 26.8019 19.1764 26.9442 19.3096 27.3781C19.3382 27.4705 19.2461 27.6186 19.1775 27.7183C18.332 28.9561 17.5431 30.2394 16.6033 31.4013C16.1855 31.9179 16.1359 32.5996 15.6439 33.0417L15.6415 33.0399Z" fill="#F04F4F"/>
<path d="M32.1625 22.9609C32.749 23.8308 33.2767 24.5571 33.7379 25.3242C33.9629 25.698 34.234 25.7741 34.6253 25.761C35.5309 25.7322 36.4371 25.7369 37.4698 25.7269C36.78 26.5845 36.1603 27.3536 35.5426 28.1214C34.8074 27.6296 34.5627 27.6515 33.9426 28.3138C33.628 28.6493 33.3543 29.023 33.0572 29.3864C33.9576 29.7816 34.6109 29.6091 35.435 28.7327C35.5738 29.1249 35.7002 29.4812 35.8074 29.7825C35.682 29.9762 35.5891 30.1191 35.4963 30.2621C35.625 30.3152 35.7587 30.3583 35.8799 30.425C35.9582 30.4685 36.0499 30.5332 36.0794 30.6097C36.1835 30.8811 36.2636 31.1611 36.3931 31.5619C35.6047 31.2788 34.874 31.0944 34.2198 30.7621C33.4664 30.3787 32.8939 30.501 32.2823 31.0375C31.7303 31.5216 31.0987 31.9152 30.4241 32.405C30.4689 31.3479 30.5259 30.377 30.5359 29.4065C30.5378 29.2114 30.4107 28.9474 30.2562 28.8298C29.5712 28.3079 28.8535 27.8294 28.149 27.3323C28.0573 27.2676 27.9743 27.1903 27.83 27.0712C28.7775 26.8123 29.6464 26.5519 30.5278 26.3432C30.9427 26.245 31.1677 26.0604 31.2888 25.6348C31.5363 24.7619 31.8491 23.908 32.1618 22.9631L32.1625 22.9609Z" fill="#F04F4F"/>
<path d="M16.5881 79.3555C16.1364 79.7574 15.7052 80.1407 15.2431 80.5503C12.8105 77.6527 10.7495 74.4755 9.05892 70.9278C9.66901 70.8421 10.2179 70.7523 10.7698 70.6989C10.8637 70.6899 11.0179 70.8128 11.0675 70.9127C12.5679 73.9549 14.4569 76.7424 16.5902 79.3699C16.6002 79.3821 16.6009 79.4019 16.5859 79.3547L16.5881 79.3555Z" fill="#F04F4F"/>
<path d="M88.5657 59.7643C88.0911 61.3869 87.6636 62.8907 87.2075 64.3849C87.0162 65.01 86.7791 65.6216 86.5273 66.2259C86.4343 66.4496 86.2354 66.6263 86.097 66.8323C86.0148 66.9538 85.8886 67.0973 85.8986 67.2206C85.9575 67.9373 85.666 68.4225 85.0873 68.8433C84.6073 69.1925 84.227 69.6787 83.6982 70.2088C84.1554 69.2582 84.5621 68.4393 84.9464 67.61C86.0215 65.2902 86.8531 62.882 87.3939 60.3837C87.538 59.7202 87.9821 59.86 88.5667 59.7642L88.5657 59.7643Z" fill="#F04F4F"/>
<path d="M14.2353 33.8662C14.5879 34.6045 14.8444 33.9891 15.2416 33.862C15.0344 34.2924 14.8578 34.6577 14.6837 35.0185C14.4885 35.0134 14.3092 35.0093 13.9848 35.0004C14.5786 35.6619 14.1499 36.1747 13.9413 36.7143C13.705 37.3247 13.5641 37.9962 13.215 38.5325C12.8263 39.1298 12.8507 39.8021 12.6326 40.4226C12.4058 41.0706 12.2585 41.7482 12.0931 42.4168C11.8873 43.2514 11.8958 43.2523 10.9541 43.2998C11.6384 40.0218 12.7303 36.9138 14.2341 33.8653L14.2353 33.8662Z" fill="#F04F4F"/>
</svg>
