<svg width="50" height="50" viewBox="0 0 50 50" fill="none" xmlns="http://www.w3.org/2000/svg">
<g clip-path="url(#clip0_108_566)">
<path d="M15.8333 34.9641C18.8888 37.1862 21.9445 38.9641 25 38.9641C28.0555 38.9641 31.1112 37.1862 34.1667 34.9641C31.6481 34.1974 30.3703 33.0529 30.3333 31.5307C30.3333 31.2594 30.3353 30.8741 30.3372 30.1506C30.3372 30.0357 30.3374 29.918 30.338 29.7976C30.343 27.8576 30.3512 25.2976 30.3627 22.6976C32.7513 19.6014 31.8738 15.9716 31.1253 16.0621C30.2077 16.1737 22.2572 8.62906 20.7322 8.24222C19.2072 7.85539 15.3333 9.10422 14.6667 12.5834C14 16.0626 13.7213 24.8322 16.25 28.3334C16.9696 29.3297 18.1029 29.7194 19.65 29.5026C19.6522 30.2307 19.6565 30.6394 19.6667 31.4641C19.6468 33.0556 18.3692 34.1982 15.8333 34.9641Z" fill="url(#paint0_linear_108_566)"/>
<path d="M19.6667 29.5C23.3334 29.0833 25.6667 27.5 25.6667 27.5C25.6667 27.5 23 30.8333 19.6667 31.5V29.5Z" fill="#FC9F6A"/>
<path d="M31.5834 22.7501C32.7317 19.9884 37.3334 14.3639 33.3667 10.8639C32.0334 4.36389 24.6667 5.08339 19.75 6.58339C16.4455 7.59155 13.95 9.58339 13.4167 8.08339C10.0834 10.8639 11.7527 13.5834 13.95 14.3639C15.9444 15.0722 19.3167 15.7806 25.051 15.1139C26.0754 14.9947 25.8609 18.1319 26.4082 18.4711C27.2294 18.9799 27.8667 15.7806 30.118 16.7412C32.3694 17.7019 31.0334 22.1562 28.6167 22.1562C27.7834 22.1562 27.3667 24.4474 29.6167 25.5307C31.25 26.3334 30.8372 24.5446 31.5834 22.7501Z" fill="url(#paint1_linear_108_566)"/>
<path d="M42.5 40.0514C44.0867 43.2775 45 50.718 45 50.718H5C5 50.718 5.91367 43.2767 7.5 40.0514C9.08633 36.826 18.35 33.8345 18.35 33.8345C23.4688 35.8334 26.6013 35.8334 31.6452 33.8334C31.6452 33.8334 40.9133 36.8252 42.5 40.0514Z" fill="url(#paint2_linear_108_566)"/>
<path d="M26.1667 35.0001L27 50.3334H23L23.8333 35.0001C23.8333 35.0001 24.6112 34.1667 25 34.1667C25.3888 34.1667 26.1667 35.0001 26.1667 35.0001Z" fill="url(#paint3_linear_108_566)"/>
<path d="M26.3565 38.1154L23.7357 36.6011L23.8333 35.0001C24.3519 34.4445 24.7408 34.1667 25 34.1667C25.2592 34.1667 25.6481 34.4445 26.1667 35.0001L26.3567 38.1154H26.3565Z" fill="#645050"/>
<path d="M25 34.1654L23.3334 37.1667L18.1667 34L19.6667 31.8334L25 33.8035L30.3334 31.8334L31.8334 34L26.6667 37.1667L25 34.1654Z" fill="white"/>
</g>
<defs>
<linearGradient id="paint0_linear_108_566" x1="24.1869" y1="8.17456" x2="24.1869" y2="38.9641" gradientUnits="userSpaceOnUse">
<stop stop-color="#F7B186"/>
<stop offset="1" stop-color="#FFC299"/>
</linearGradient>
<linearGradient id="paint1_linear_108_566" x1="23.2401" y1="5.5647" x2="23.2401" y2="25.7281" gradientUnits="userSpaceOnUse">
<stop stop-color="#1D0024"/>
<stop offset="1" stop-color="#100014"/>
</linearGradient>
<linearGradient id="paint2_linear_108_566" x1="25" y1="33.8334" x2="25" y2="50.718" gradientUnits="userSpaceOnUse">
<stop stop-color="#1D0024"/>
<stop offset="1" stop-color="#100014"/>
</linearGradient>
<linearGradient id="paint3_linear_108_566" x1="25" y1="34.1667" x2="25" y2="50.3334" gradientUnits="userSpaceOnUse">
<stop stop-color="#806A6A"/>
<stop offset="1" stop-color="#665654"/>
</linearGradient>
<clipPath id="clip0_108_566">
<rect width="50" height="50" rx="25" fill="white"/>
</clipPath>
</defs>
</svg>
