<svg width="6" height="7" viewBox="0 0 6 7" fill="none" xmlns="http://www.w3.org/2000/svg">
<path d="M1.54626 4.8001C1.46179 4.8001 1.37854 4.79636 1.29602 4.78909L0.00646973 6.02706C0.782081 6.31221 1.62713 6.37558 2.43945 6.2095C3.25178 6.04342 3.9966 5.65501 4.58389 5.09122C5.17117 4.52743 5.57576 3.8124 5.74876 3.03257C5.92176 2.25273 5.85575 1.44149 5.55872 0.696899L4.26917 1.93487C4.27673 2.01409 4.28064 2.09401 4.28064 2.1751C4.28083 2.51988 4.21024 2.8613 4.07289 3.17987C3.93554 3.49843 3.73414 3.78788 3.48019 4.03167C3.22624 4.27546 2.92473 4.46881 2.59289 4.60067C2.26106 4.73252 1.9054 4.80029 1.54626 4.8001V4.8001Z" fill="#C5C5C5"/>
</svg>
