<svg width="32" height="30" viewBox="0 0 32 30" fill="none" xmlns="http://www.w3.org/2000/svg">
<path fill-rule="evenodd" clip-rule="evenodd" d="M28.5616 7.50072L20.1358 1.33572C17.6712 -0.445241 14.3262 -0.445241 11.8616 1.33572L3.45101 7.50072C1.8226 8.66193 0.853732 10.5242 0.844482 12.5107V23.6557C0.935445 27.2456 3.94602 30.0846 7.57297 30.0007H24.4245C28.0514 30.0846 31.062 27.2456 31.153 23.6557V12.4957C31.14 10.5178 30.1781 8.66365 28.5616 7.50072ZM28.8798 23.6557C28.7894 26.0032 26.7963 27.8351 24.4245 27.7507H7.57297C5.20432 27.8268 3.21616 25.9995 3.11762 23.6557V12.5107C3.1257 11.2356 3.75132 10.0417 4.79974 9.30071L13.2103 3.15071C14.8714 1.95008 17.1261 1.95008 18.7871 3.15071L27.1977 9.31571C28.2452 10.0438 28.872 11.2287 28.8798 12.4957V23.6557ZM9.17931 20.6257H22.8181C23.4458 20.6257 23.9547 21.1294 23.9547 21.7507C23.9547 22.372 23.4458 22.8757 22.8181 22.8757H9.17931C8.5516 22.8757 8.04274 22.372 8.04274 21.7507C8.04274 21.1294 8.5516 20.6257 9.17931 20.6257Z" fill="white"/>
</svg>
