<svg width="38" height="36" viewBox="0 0 38 36" fill="none" xmlns="http://www.w3.org/2000/svg">
<path fill-rule="evenodd" clip-rule="evenodd" d="M11.8659 3.98688C13.1825 1.52829 15.747 -0.00450474 18.5359 0.000216639C21.3742 -0.0210681 23.992 1.52748 25.3401 4.02522L36.1501 24.0352C37.4326 26.4111 37.3708 29.2863 35.9875 31.6049C34.6042 33.9235 32.1033 35.3436 29.4034 35.3436H7.66844C4.96049 35.3442 2.45307 33.9162 1.072 31.5869C-0.309056 29.2576 -0.358875 26.3725 0.940943 23.9969L11.8659 3.98688ZM22.7526 5.38605C21.9212 3.83213 20.2983 2.86575 18.5359 2.87522C16.7995 2.88726 15.2066 3.84152 14.3768 5.36688L3.47094 25.3385C2.65638 26.8195 2.68589 28.6209 3.54853 30.0744C4.41117 31.5278 5.97825 32.4166 7.66844 32.4111H29.4034C31.0876 32.4008 32.6438 31.5105 33.5063 30.0639C34.3687 28.6173 34.4119 26.825 33.6201 25.3385L22.7526 5.38605Z" fill="white"/>
<path d="M18.5359 23.0004C17.742 23.0004 17.0984 23.644 17.0984 24.4379C17.0984 25.2318 17.742 25.8754 18.5359 25.8754C18.9188 25.8806 19.2874 25.7309 19.5582 25.4601C19.8289 25.1894 19.9787 24.8208 19.9734 24.4379C19.9735 24.0584 19.8214 23.6947 19.5513 23.4282C19.2811 23.1616 18.9154 23.0145 18.5359 23.0196V23.0004Z" fill="white"/>
<path d="M18.5359 20.3746C17.7463 20.3643 17.1088 19.7267 17.0984 18.9371V12.9954C17.0984 12.2015 17.742 11.5579 18.5359 11.5579C19.3299 11.5579 19.9734 12.2015 19.9734 12.9954V18.9371C19.9734 19.731 19.3299 20.3746 18.5359 20.3746Z" fill="white"/>
</svg>
