<svg width="39" height="39" viewBox="0 0 39 39" fill="none" xmlns="http://www.w3.org/2000/svg">
<path fill-rule="evenodd" clip-rule="evenodd" d="M35.3408 3.04925L38.5225 11.8851C39.2147 13.596 39.0436 15.5352 38.0625 17.0984C37.2277 18.2832 36.0196 19.1537 34.6317 19.5709V32.6042C34.6015 34.0683 33.9908 35.4605 32.9339 36.4742C31.8771 37.4879 30.4607 38.0401 28.9967 38.0092H10.4817C8.99941 38.0661 7.55627 37.5261 6.47547 36.5101C5.39466 35.4942 4.7665 34.0872 4.73166 32.6042V19.7626C3.38224 19.4535 2.16679 18.7216 1.26249 17.6734C-0.0377941 16.0503 -0.360277 13.8516 0.419158 11.9234L3.58166 3.06841C4.32751 1.17994 6.17092 -0.0438989 8.20083 0.00174689H30.7217C32.7484 -0.0525813 34.5933 1.16462 35.3408 3.04925ZM22.0611 34.8851H22.0775V34.9426C22.0717 34.9235 22.0662 34.9043 22.0611 34.8851ZM22.0611 34.8851H17.19C17.2082 34.7387 17.2082 34.5906 17.19 34.4442V30.4001C17.2234 29.7919 17.5048 29.2241 17.9685 28.8292C18.4322 28.4344 19.0376 28.247 19.6433 28.3109C20.8478 28.2226 21.899 29.12 22.0008 30.3234V34.4251C22.0008 34.5805 22.0211 34.7351 22.0611 34.8851ZM28.9008 34.8851H24.8567C24.8749 34.7387 24.8749 34.5906 24.8567 34.4442V30.4001C24.7526 27.5778 22.3896 25.3689 19.5667 25.4551C16.7364 25.3581 14.3615 27.57 14.2575 30.4001V34.5017C14.2393 34.6481 14.2393 34.7962 14.2575 34.9426H10.3858C8.97398 35.0077 7.77482 33.9199 7.70249 32.5084V19.7242C10.2562 19.3387 12.3072 17.4174 12.8583 14.8942C13.5334 17.9554 16.3429 20.0646 19.4708 19.8584C22.5422 19.9871 25.264 17.8953 25.93 14.8942C26.4693 17.5763 28.6905 19.5956 31.4117 19.8776V32.6042C31.2944 33.9104 30.212 34.9185 28.9008 34.9426V34.8851ZM32.7342 16.5042C33.7503 16.4776 34.6916 15.9641 35.2642 15.1242V15.1817C35.6618 14.5117 35.7118 13.6909 35.3983 12.9776L32.2358 4.25675C31.9553 3.68639 31.3554 3.34467 30.7217 3.39425H8.20083C7.59114 3.3385 7.00562 3.64627 6.70583 4.18008L3.54333 12.9776C3.13231 13.791 3.20612 14.7653 3.73499 15.5076C4.2127 16.0946 4.9001 16.4727 5.65166 16.5617C5.89362 16.59 6.13803 16.59 6.37999 16.5617C7.85479 16.6423 9.18676 15.6852 9.58083 14.2617C9.87326 12.6416 11.2697 11.4538 12.9158 11.4251C14.5797 11.4243 15.9956 12.6368 16.2508 14.2809C16.641 15.7131 17.9903 16.6689 19.4708 16.5617C20.9635 16.6612 22.3126 15.6757 22.6717 14.2234C22.9489 12.5916 24.3517 11.3904 26.0067 11.3676C27.6643 11.3653 29.0779 12.5677 29.3417 14.2042C29.7321 15.6471 31.0899 16.6112 32.5808 16.5042H32.7342Z" fill="white"/>
</svg>
