<svg width="30" height="30" viewBox="0 0 30 30" fill="none" xmlns="http://www.w3.org/2000/svg">
<path fill-rule="evenodd" clip-rule="evenodd" d="M7.47504 0.00316556H22.4536C24.4106 -0.0543233 26.3093 0.673202 27.7268 2.02368C29.1442 3.37417 29.9628 5.23544 30 7.19289V18.0203C29.8834 22.0443 26.55 25.225 22.525 25.153H20.214C19.6331 25.1545 19.0834 25.4162 18.7161 25.8662L16.5335 28.648C16.1679 29.1004 15.6174 29.3633 15.0357 29.3633C14.454 29.3633 13.9034 29.1004 13.5378 28.648L11.2839 25.8092C10.9166 25.3592 10.3669 25.0974 9.78602 25.0959H7.47504C3.44997 25.1679 0.116609 21.9872 0 17.9632V7.13583C0.108945 3.10841 3.44693 -0.0766909 7.47504 0.00316556ZM22.4679 23.0132C25.3331 23.0851 27.7177 20.828 27.8031 17.9632V7.19289C27.7177 4.32239 25.3243 2.06302 22.4536 2.14297H7.47504C4.60437 2.06302 2.21097 4.32239 2.12553 7.19289V17.9632C2.21097 20.8337 4.60437 23.0931 7.47504 23.0132H9.78602C11.023 23.0134 12.193 23.5748 12.9672 24.5395L14.9643 27.0788L16.9615 24.5395C17.7357 23.5748 18.9057 23.0134 20.1427 23.0132H22.4679Z" fill="white"/>
<path d="M9.61484 9.93184C9.02395 9.93184 8.54493 10.4109 8.54493 11.0017V14.4254C8.54493 15.0163 9.02395 15.4953 9.61484 15.4953C10.2057 15.4953 10.6847 15.0163 10.6847 14.4254V11.0017C10.6847 10.4109 10.2057 9.93184 9.61484 9.93184Z" fill="white"/>
<path d="M14.9643 9.93184C14.3734 9.93184 13.8944 10.4109 13.8944 11.0017V14.4254C13.8944 15.0163 14.3734 15.4953 14.9643 15.4953C15.5552 15.4953 16.0342 15.0163 16.0342 14.4254V11.0017C16.0342 10.4109 15.5552 9.93184 14.9643 9.93184Z" fill="white"/>
<path d="M20.3138 9.93184C19.7229 9.93184 19.2439 10.4109 19.2439 11.0017V14.4254C19.2439 15.0163 19.7229 15.4953 20.3138 15.4953C20.9047 15.4953 21.3837 15.0163 21.3837 14.4254V11.0017C21.3837 10.4109 20.9047 9.93184 20.3138 9.93184Z" fill="white"/>
</svg>
