<svg width="40" height="40" viewBox="0 0 40 40" fill="none" xmlns="http://www.w3.org/2000/svg">
<g clip-path="url(#clip0_108_578)">
<path d="M12.6667 27.9712C15.1111 29.7489 17.5556 31.1712 20 31.1712C22.4444 31.1712 24.8889 29.7489 27.3333 27.9712C25.3185 27.3579 24.2963 26.4423 24.2667 25.2245C24.2667 25.0075 24.2683 24.6992 24.2697 24.1204C24.2697 24.0285 24.27 23.9344 24.2704 23.838C24.2744 22.286 24.2809 20.238 24.2901 18.158C26.2011 15.6811 25.4991 12.7772 24.9003 12.8496C24.1661 12.9389 17.8057 6.90321 16.5857 6.59374C15.3657 6.28427 12.2667 7.28334 11.7333 10.0667C11.2 12.85 10.9771 19.8657 13 22.6667C13.5757 23.4637 14.4823 23.7755 15.72 23.602C15.7217 24.1845 15.7252 24.5115 15.7333 25.1712C15.7175 26.4444 14.6953 27.3585 12.6667 27.9712Z" fill="url(#paint0_linear_108_578)"/>
<path d="M15.7333 23.6C18.6667 23.2667 20.5333 22 20.5333 22C20.5333 22 18.4 24.6667 15.7333 25.2V23.6Z" fill="#FC9F6A"/>
<path d="M25.2667 18.2C26.1854 15.9907 29.8667 11.4911 26.6934 8.69107C25.6267 3.49107 19.7334 4.06667 15.8 5.26667C13.1564 6.07321 11.16 7.66667 10.7333 6.46667C8.06668 8.69107 9.40215 10.8667 11.16 11.4911C12.7555 12.0577 15.4534 12.6244 20.0408 12.0911C20.8603 11.9957 20.6887 14.5055 21.1266 14.7768C21.7835 15.1839 22.2934 12.6244 24.0944 13.3929C25.8955 14.1615 24.8267 17.7249 22.8934 17.7249C22.2267 17.7249 21.8934 19.5579 23.6934 20.4245C25 21.0667 24.6698 19.6356 25.2667 18.2Z" fill="url(#paint1_linear_108_578)"/>
<path d="M34 32.0411C35.2693 34.622 36 40.5744 36 40.5744H4C4 40.5744 4.73093 34.6213 6 32.0411C7.26907 29.4608 14.68 27.0676 14.68 27.0676C18.7751 28.6667 21.2811 28.6667 25.3161 27.0667C25.3161 27.0667 32.7307 29.4601 34 32.0411Z" fill="url(#paint2_linear_108_578)"/>
<path d="M20.9334 28L21.6 40.2667H18.4L19.0667 28C19.0667 28 19.689 27.3333 20 27.3333C20.3111 27.3333 20.9334 28 20.9334 28Z" fill="url(#paint3_linear_108_578)"/>
<path d="M21.0852 30.4923L18.9885 29.2808L19.0667 28C19.4815 27.5556 19.7926 27.3333 20 27.3333C20.2074 27.3333 20.5185 27.5556 20.9333 28L21.0853 30.4923H21.0852Z" fill="#645050"/>
<path d="M20 27.3323L18.6667 29.7333L14.5333 27.2L15.7333 25.4667L20 27.0428L24.2667 25.4667L25.4667 27.2L21.3333 29.7333L20 27.3323Z" fill="white"/>
</g>
<defs>
<linearGradient id="paint0_linear_108_578" x1="19.3496" y1="6.53961" x2="19.3496" y2="31.1712" gradientUnits="userSpaceOnUse">
<stop stop-color="#F7B186"/>
<stop offset="1" stop-color="#FFC299"/>
</linearGradient>
<linearGradient id="paint1_linear_108_578" x1="18.5921" y1="4.45172" x2="18.5921" y2="20.5824" gradientUnits="userSpaceOnUse">
<stop stop-color="#1D0024"/>
<stop offset="1" stop-color="#100014"/>
</linearGradient>
<linearGradient id="paint2_linear_108_578" x1="20" y1="27.0667" x2="20" y2="40.5744" gradientUnits="userSpaceOnUse">
<stop stop-color="#1D0024"/>
<stop offset="1" stop-color="#100014"/>
</linearGradient>
<linearGradient id="paint3_linear_108_578" x1="20" y1="27.3333" x2="20" y2="40.2667" gradientUnits="userSpaceOnUse">
<stop stop-color="#806A6A"/>
<stop offset="1" stop-color="#665654"/>
</linearGradient>
<clipPath id="clip0_108_578">
<rect width="40" height="40" rx="20" fill="white"/>
</clipPath>
</defs>
</svg>
